<svg id="Layer_1" data-name="Layer 1" xmlns="http://www.w3.org/2000/svg" viewBox="0 0 308.37 91.37"><defs><style>.cls-1{fill:#32a69d;}.cls-2{fill:#414141;}</style></defs><title>04-01-Website Layout</title><rect class="cls-1" x="40.68" y="74.57" width="4.15" height="4.15"/><path class="cls-2" d="M64.73,26.64a37.54,37.54,0,0,0-5.12-4.29v9.33a31.12,31.12,0,0,1,3.21,3.75l.39.52a30.71,30.71,0,0,1,0,35l-.38.51A30.73,30.73,0,1,1,36.09,22.78V15.56A37.93,37.93,0,1,0,62.82,82v5.07H75.11V26.64Z"/><path class="cls-1" d="M52.45,3.2a.47.47,0,0,0-.3.11L48.77,5.37a.26.26,0,0,0-.15.14c-.2.07-.23.23-.23.42,0,.49,0,1,0,1.46V47.6q0,10.59,0,21.2a.34.34,0,0,1,0,.24,4,4,0,0,0-.91,0c-.15-.13-.06-.3-.06-.45,0-2.16,0-4.31,0-6.47,0-.31,0-.31-.25-.32H43.45c-.18,0-.21.12-.16.27,0,2.17,0,4.35,0,6.53a.9.9,0,0,1,0,.43h-1a6.87,6.87,0,0,1,0-1.2V14.09c0-1.36,0-2.72,0-4.09a1,1,0,0,0,0-.5.55.55,0,0,0-.32.13L38.3,11.81c-.06,0-.12.08-.12.16,0,.64,0,1.29,0,1.94V72.73a.81.81,0,0,0,0,.38H52.49c0-.42,0-.83,0-1.25V5.15c0-.51,0-1,0-1.51a.66.66,0,0,0,0-.44"/><path class="cls-1" d="M57.61,68.19q0-33,0-66.08c0-.56,0-1.12,0-1.68A.52.52,0,0,0,57.53,0c-.81.49-1.61,1-2.39,1.46-.49.31-1,.57-1.45.92-.18.05-.17.21-.17.35,0,.51,0,1,0,1.55V72.83c0,.1,0,.24.12.28L54.93,72a28.3,28.3,0,0,0,2.23-2.15c.07-.08.12-.19.25-.22a.76.76,0,0,0,.21-.63c0-.27,0-.54,0-.82"/><path class="cls-1" d="M37.15,63.44c0-.47,0-.94,0-1.42,0-.06,0-.14,0-.18a.49.49,0,0,0-.21,0h-3.6a.45.45,0,0,0-.2,0,.11.11,0,0,0,0,.15c0,.5,0,1,0,1.51,0,1.82,0,3.64,0,5.46a5.32,5.32,0,0,1-1,.07,9,9,0,0,0-1.37,0c-.07,0-.15,0-.16.1a1.53,1.53,0,0,0,0,.3c0,1.14,0,2.29,0,3.44a.36.36,0,0,0,.06.2h6.57c.13-.12.07-.27.07-.41V63.44"/><path class="cls-1" d="M19.05,48.22h0v9.72h6.3v1.25q0,4.89,0,9.77a.58.58,0,0,1-.29.06l-3.17,0a.55.55,0,0,1-.41-.19c-.2-.19-.35-.45-.61-.58a22,22,0,0,1-3.17-4.5,23,23,0,0,1-1.1-2.36,29.18,29.18,0,0,1-1-3c-.14-.53-.21-1.06-.3-1.6-.43-2.58-.33-2.23-.17-5.64a20.92,20.92,0,0,1,1.13-4.87c.18-.52.37-1,.59-1.55a24.09,24.09,0,0,1,1.28-2.47A22.9,22.9,0,0,1,20,39.64a2.07,2.07,0,0,0,.63-1.54c0-1.6,0-3.2,0-4.8a.85.85,0,0,0-.09-.65,9.33,9.33,0,0,0-.76.79,27.17,27.17,0,0,0-5.1,6.35,26.43,26.43,0,0,0-3.5,11.87,25,25,0,0,0,.93,8.51,5.39,5.39,0,0,0,.26.73A26.38,26.38,0,0,0,19.18,72c.29.28.6.53.88.82a.84.84,0,0,0,.65.25H29.4c.11-.12.07-.27.07-.41V57.94h0V53.2H23.1V49.39h6.38V44.7H19.05Z"/><path class="cls-1" d="M298.87,65.75H306a2.33,2.33,0,0,0,2.33-2.33V29.18A2.33,2.33,0,0,0,306,26.85h-7.17a2.33,2.33,0,0,0-2.34,2.33V63.42a2.33,2.33,0,0,0,2.34,2.33"/><path class="cls-1" d="M214.4,49.75a8.69,8.69,0,0,0-.51-3.12,3.1,3.1,0,0,0-.63-.94c-.39-.33-.41-.61-.08-1a4.94,4.94,0,0,0,1-1.88c.09-.36.26-2.62.26-2.92,0-2.15.06-4.31,0-6.47A6.58,6.58,0,0,0,212.82,29,3.3,3.3,0,0,0,211,27.56a11.1,11.1,0,0,0-4.28-.66q-10.2,0-20.38,0v0h-7.65v38.9H181q12.6,0,25.2,0a12.08,12.08,0,0,0,3.4-.46,5.94,5.94,0,0,0,4-3,9.28,9.28,0,0,0,.88-2.88c.09-.77,0-7.06,0-7.06s0-1.74,0-2.6m-11.32,5.49H190.25V50.6h12.83Zm0-13.79H190.25V36.81h12.83Z"/><path class="cls-1" d="M253.73,34.07a7.59,7.59,0,0,0-1.06-3.74,5,5,0,0,0-1.93-2.1,7.85,7.85,0,0,0-4.51-1.31H225.91a8.5,8.5,0,0,0-3.35.68,5.34,5.34,0,0,0-3.27,2.95,3.09,3.09,0,0,0-.4.79,11.59,11.59,0,0,0-.58,3.79V56.3h0v7.24a2.23,2.23,0,0,0,2.23,2.23h6.85a2.23,2.23,0,0,0,2.24-2.23V50.6h12.83V63.55a2.22,2.22,0,0,0,2.23,2.22h6.84a2.22,2.22,0,0,0,2.23-2.22v-.79q0-12.82,0-25.64c0-1,0-2,0-3m-11.27,7.38H229.63V36.81h12.83Z"/><path class="cls-1" d="M124.44,34.07a7.39,7.39,0,0,0-1.06-3.74,5,5,0,0,0-1.93-2.1,7.83,7.83,0,0,0-4.51-1.31H96.63a8.51,8.51,0,0,0-3.36.68A5.34,5.34,0,0,0,90,30.54a3.09,3.09,0,0,0-.4.79A11.59,11.59,0,0,0,89,35.12q0,10.59,0,21.18h0v7.24a2.23,2.23,0,0,0,2.23,2.23h6.86a2.23,2.23,0,0,0,2.23-2.23V50.6h12.83V63.55a2.22,2.22,0,0,0,2.23,2.22h6.84a2.22,2.22,0,0,0,2.23-2.22v-.76l0,0,0-25.64c0-1,0-2,0-3m-11.27,7.38H100.34V36.81h12.83Z"/><path class="cls-1" d="M292.55,61.13V56.78s0-.06,0-.09c0-2.09,0-4.18,0-6.28a6.7,6.7,0,0,0-.69-3,2.82,2.82,0,0,0-.74-.88c-.35-.33-.45-.57-.06-1a5.31,5.31,0,0,0,1.4-3c.06-.46.08-1.56.08-2,0-1.72.07-4.57,0-6.85a7.94,7.94,0,0,0-.68-3.29A8.55,8.55,0,0,0,291,29.2a6.41,6.41,0,0,0-3.09-1.84,14.73,14.73,0,0,0-4-.46q-11.77,0-23.56,0h-1.73c-.48,0-.57.26-.45.66,0,1.08-.06,2.17-.06,3.25q0,12.89,0,25.77s0,0,0,.09v7a2.14,2.14,0,0,0,2.15,2.14h6.59A2.14,2.14,0,0,0,269,63.63v-13h12.84v13a2.11,2.11,0,0,0,2.12,2.12h6.5a2.12,2.12,0,0,0,2.13-2.12V61.13M281.81,41.45H269V36.81h12.84Z"/><path class="cls-1" d="M159.33,56.22A2.34,2.34,0,0,0,157,53.88h-16.7V29.18A2.33,2.33,0,0,0,138,26.85h-7.17a2.33,2.33,0,0,0-2.34,2.33V63.42a2.33,2.33,0,0,0,2.34,2.33H157a2.33,2.33,0,0,0,2.33-2.33Z"/><path class="cls-1" d="M173.16,56.62h-9.53a1.69,1.69,0,0,1-1.69-1.69v-7.8a1.69,1.69,0,0,1,1.69-1.69h9.53a1.69,1.69,0,0,1,1.69,1.69v7.8a1.69,1.69,0,0,1-1.69,1.69"/><path class="cls-2" d="M99.05,77.35a3.91,3.91,0,0,0-2.78-1.15c-2,0-3.34,1.5-3.34,3.72a3.66,3.66,0,0,0,3.49,3.75,3.18,3.18,0,0,0,1.52-.29V81.5H95.82l.25-2.43h5.25v6A9,9,0,0,1,96,86.61a7,7,0,0,1-5.17-2.2,6.56,6.56,0,0,1-1.58-4.58,6.74,6.74,0,0,1,7-6.71,6.83,6.83,0,0,1,5,1.79Z"/><path class="cls-2" d="M104.08,73.53c.35,0,.65-.06.82-.08,1.09-.09,2.4-.15,3.18-.15,4,0,6,1.42,6,4.17A3.5,3.5,0,0,1,112,80.78l3.45,5.48h-4L109,81.87h-1.43v4.39h-3.47Zm3.47,6h1.72a1.71,1.71,0,0,0,1.44-1.8c0-1.09-.82-1.77-2.12-1.77-.35,0-.45,0-1,0Z"/><path class="cls-2" d="M128.23,75.21A6.72,6.72,0,0,1,130,79.75a6.83,6.83,0,0,1-13.65.17,6.66,6.66,0,0,1,6.77-6.8,6.57,6.57,0,0,1,5.1,2.09m-8.12,4.52a4.52,4.52,0,0,0,1,2.86,2.88,2.88,0,0,0,2,1c1.89.12,3.08-1.27,3.08-3.53s-1.41-3.88-3.28-3.88-2.88,1.39-2.88,3.59"/><path class="cls-2" d="M136,73.47V81a2.66,2.66,0,0,0,.7,2.22,2.72,2.72,0,0,0,1.82.57,2.2,2.2,0,0,0,1.93-1,3.86,3.86,0,0,0,.33-1.83V73.47h3.47v7.66c0,2.05-.45,3.28-1.52,4.17a7.18,7.18,0,0,1-4.41,1.31c-2.43,0-4.21-.74-5.07-2.08A6.89,6.89,0,0,1,132.5,81V73.47Z"/><path class="cls-2" d="M147,73.53l1.13-.1c1-.06,2.3-.13,2.75-.13,2.34,0,3.67.35,4.68,1.23A4.28,4.28,0,0,1,157,77.92a4.36,4.36,0,0,1-2.26,3.86,7.1,7.1,0,0,1-3.31.66l-1,0v3.86H147Zm3.47,6.24c.33,0,.65,0,.86,0,1.44,0,2.3-.66,2.3-1.8s-.84-1.85-2.24-1.85l-.92,0Z"/><path class="cls-2" d="M175.64,75.21a6.76,6.76,0,0,1,1.77,4.54,6.82,6.82,0,0,1-13.64.17,6.66,6.66,0,0,1,6.76-6.8,6.59,6.59,0,0,1,5.11,2.09m-8.13,4.52a4.58,4.58,0,0,0,1.05,2.86,2.9,2.9,0,0,0,2,1c1.89.12,3.08-1.27,3.08-3.53s-1.4-3.88-3.28-3.88-2.88,1.39-2.88,3.59"/><polygon class="cls-2" points="183.38 78.91 187.37 78.91 187.37 81.6 183.38 81.6 183.38 86.26 179.91 86.26 179.91 73.47 187.9 73.47 187.9 76.32 183.38 76.32 183.38 78.91"/><path class="cls-2" d="M204,77.16a4,4,0,0,0-2.48-.84,3.23,3.23,0,0,0-3.21,3.49,3.43,3.43,0,0,0,3.33,3.6,4.15,4.15,0,0,0,2.71-.89l1.46,2.67A7.48,7.48,0,0,1,201,86.61a6.49,6.49,0,0,1-6.4-6.86,6.58,6.58,0,0,1,6.73-6.63,7.27,7.27,0,0,1,4.44,1.35Z"/><path class="cls-2" d="M218.38,75.21a6.72,6.72,0,0,1,1.78,4.54,6.83,6.83,0,0,1-13.65.17,6.66,6.66,0,0,1,6.77-6.8,6.57,6.57,0,0,1,5.1,2.09m-8.12,4.52a4.52,4.52,0,0,0,1.05,2.86,2.88,2.88,0,0,0,2,1c1.89.12,3.08-1.27,3.08-3.53s-1.41-3.88-3.28-3.88-2.88,1.39-2.88,3.59"/><polygon class="cls-2" points="237.91 86.26 234.47 86.26 233.63 79.42 230.64 86.26 228.46 86.26 225.5 79.46 224.64 86.26 221.74 86.26 223.67 73.47 226.45 73.47 229.84 81.35 233.24 73.47 236 73.47 237.91 86.26"/><path class="cls-2" d="M240.16,73.53l1.13-.1c1-.06,2.3-.13,2.74-.13,2.34,0,3.67.35,4.68,1.23a4.28,4.28,0,0,1,1.45,3.39,4.37,4.37,0,0,1-2.27,3.86,7.08,7.08,0,0,1-3.31.66l-1,0v3.86h-3.47Zm3.47,6.24c.33,0,.64,0,.85,0,1.45,0,2.3-.66,2.3-1.8s-.83-1.85-2.24-1.85l-.91,0Z"/><path class="cls-2" d="M258.71,83.45H254l-1.15,2.81h-3.27l5.5-12.79h3l5.42,12.79h-3.69Zm-2.3-6.08-1.62,4h3.14Z"/><polygon class="cls-2" points="267.7 73.24 274.33 80.51 274.27 73.47 277.52 73.47 277.52 85.99 275.3 86.47 268.65 79.26 268.71 86.26 265.46 86.26 265.46 73.75 267.7 73.24"/><rect class="cls-2" x="280.31" y="73.47" width="3.47" height="12.79"/><polygon class="cls-2" points="289.96 78.4 294.23 78.4 294.23 80.9 289.96 80.9 289.96 83.57 295.55 83.57 295.24 86.26 286.58 86.26 286.58 73.47 294.71 73.47 294.71 76.1 289.96 76.1 289.96 78.4"/><path class="cls-2" d="M305.55,76.9a4.89,4.89,0,0,0-2.75-1.07,1.19,1.19,0,0,0-1.27,1c0,.61.26.92,1.41,1.51a13.76,13.76,0,0,1,2.55,1.54,3.56,3.56,0,0,1,1.17,2.65c0,2.39-2,4.07-4.87,4.07a8.61,8.61,0,0,1-4.64-1.4l.37-3.08A6.08,6.08,0,0,0,301,83.82c.93.08,1.6-.43,1.6-1.24,0-.55-.33-.9-1.33-1.43l-1.38-.72a3.68,3.68,0,0,1-2.28-3.49,3.58,3.58,0,0,1,1.75-3.08,5.76,5.76,0,0,1,2.69-.74,7.8,7.8,0,0,1,4.23,1.15Z"/></svg>